<?xml version="1.0" encoding="utf-8"?>
<!-- Generator: Adobe Illustrator 24.0.0, SVG Export Plug-In . SVG Version: 6.00 Build 0)  -->
<svg version="1.1" id="Layer_1" xmlns="http://www.w3.org/2000/svg" xmlns:xlink="http://www.w3.org/1999/xlink" x="0px" y="0px"
	 viewBox="0 0 1287.48 245.9" style="enable-background:new 0 0 1287.48 245.9;" xml:space="preserve">
<style type="text/css">
	.st0{fill:#0550F0;}
	.st1{fill:#111135;}
	.st2{fill:#FFFFFF;}
</style>
<g>
	<polygon class="st0" points="148.65,150.85 0,173.65 0,99.33 148.65,76.52 	"/>
	<polygon class="st0" points="164.68,62.93 16.03,85.73 16.03,29.92 90.36,0 164.68,7.12 	"/>
	<polygon class="st0" points="164.68,215.98 90.35,245.9 16.03,238.78 16.03,182.98 164.68,160.17 	"/>
	<path class="st2" d="M354.05,68.16c0,8.59,0,17.06,0,25.9c-25.07,0-50.08,0-75.26,0c0,4.52,0,8.68,0,13.1c23.13,0,46.2,0,69.42,0
		c0,8.81,0,17.37,0,26.27c-23.08,0-46.2,0-69.46,0c0,4.45,0,8.54,0,12.96c25.02,0,50.04,0,75.25,0c0,8.87,0,17.41,0,26.14
		c-35.67,0-71.36,0-107.27,0c0-34.7,0-69.43,0-104.38C282.4,68.16,318.07,68.16,354.05,68.16z"/>
	<path class="st2" d="M402.18,146.5c24.5,0,48.51,0,72.69,0c0,8.78,0,17.32,0,26.04c-34.78,0-69.5,0-104.38,0
		c0-34.8,0-69.54,0-104.44c10.54,0,20.97,0,31.69,0C402.18,94.15,402.18,120.13,402.18,146.5z"/>
	<path class="st2" d="M745.96,172.5c3.69-7.54,7.15-14.62,10.62-21.7c13.22-26.97,26.45-53.94,39.61-80.94
		c0.8-1.64,1.72-2.19,3.51-2.18c10.05,0.08,20.1,0.1,30.14-0.01c1.94-0.02,2.86,0.67,3.68,2.35c15.07,30.84,30.2,61.66,45.32,92.48
		c1.58,3.21,3.14,6.43,4.89,10.01c-1.16,0-1.89,0-2.63,0c-9.96,0-19.92-0.04-29.89,0.04c-1.75,0.01-2.79-0.37-3.5-2.12
		c-1.1-2.7-2.41-5.32-3.88-7.84c-0.48-0.83-1.71-1.75-2.61-1.75c-17.52-0.1-35.04-0.1-52.56,0c-0.91,0.01-2.18,0.86-2.66,1.68
		c-1.59,2.74-2.83,5.68-4.35,8.47c-0.37,0.67-1.32,1.45-2.01,1.46C768.58,172.53,757.51,172.5,745.96,172.5z M814.76,103.34
		c-5.22,10.63-10.22,20.78-15.31,31.15c10.37,0,20.26,0,30.49,0C824.87,124.07,819.93,113.94,814.76,103.34z"/>
	<path class="st2" d="M624.13,67.87c10.74,0,21.18,0,31.95,0c0,1.15,0,2.15,0,3.16c0,16.24-0.1,32.47,0.07,48.71
		c0.04,4.25,0.52,8.59,1.5,12.73c2.09,8.85,8.14,13.89,16.86,15.71c7.13,1.49,14.34,1.48,21.47-0.01
		c10.72-2.25,17.03-9.78,17.87-21.64c0.47-6.67,0.41-13.39,0.44-20.08c0.06-11.85,0.02-23.71,0.02-35.56c0-0.93,0-1.86,0-2.97
		c10.64,0,21.08,0,31.61,0c0.1,0.29,0.31,0.6,0.3,0.9c-0.09,19.76-0.04,39.51-0.37,59.26c-0.14,8.06-2.33,15.79-6.11,22.97
		c-5.46,10.37-14.12,17.08-25.2,20.28c-19.84,5.72-39.85,5.88-59.61-0.33c-16.33-5.13-25.68-16.87-29.09-33.38
		c-1.05-5.1-1.57-10.38-1.63-15.59c-0.2-17.35-0.09-34.7-0.1-52.06C624.13,69.36,624.13,68.77,624.13,67.87z"/>
	<g>
		<path class="st2" d="M924.38,146.28c0,8.87,0,17.43,0,26.1c-10.73,0-21.18,0-31.86,0c0-34.81,0-69.61,0-104.54
			c0.87-0.04,1.63-0.11,2.39-0.11c25.86,0,51.71-0.09,77.57,0.03c18.93,0.09,34.84,13.04,38.36,31.51
			c2.89,15.19-1.98,27.92-13.63,38.06c-0.52,0.45-1.06,0.87-1.58,1.32c-0.12,0.1-0.16,0.29-0.34,0.63
			c5.72,10.87,11.5,21.84,17.49,33.22c-2.41,0-4.35,0-6.3,0c-9.19,0-18.38-0.04-27.57,0.04c-1.59,0.01-2.44-0.49-3.17-1.91
			c-3.9-7.55-7.89-15.06-11.93-22.53c-0.42-0.77-1.4-1.74-2.13-1.75C949.4,146.25,937.13,146.28,924.38,146.28z M924.54,119.95
			c0.81,0.06-0.54,0.14,0.04,0.14c13.13,0.01,28.2,0.05,41.33-0.01c7.82-0.04,13.69-5.71,13.74-13.06
			c0.05-7.5-5.82-13.05-13.87-13.06c-12.87-0.02-25.75-0.01-38.62,0c-0.83,0-1.66,0.09-2.62,0.15
			C924.54,102.75,924.54,111.21,924.54,119.95z"/>
		<path class="st2" d="M1026.52,172.37c0-34.97,0-69.64,0-104.44c0.69-0.08,1.27-0.2,1.84-0.2c22.07,0.02,44.14-0.07,66.21,0.16
			c9.29,0.1,18.46,1.45,27.32,4.55c16.42,5.75,25.67,17.38,28.44,34.37c1.66,10.19,1.43,20.36-0.6,30.47
			c-3.36,16.76-13.58,27.07-29.88,31.61c-9.17,2.55-18.59,3.43-28.03,3.52c-21.21,0.2-42.42,0.08-63.64,0.09
			C1027.69,172.5,1027.19,172.42,1026.52,172.37z M1058.49,94.11c0,17.4,0,34.69,0,52.16c7.06,0,13.93,0.12,20.79-0.03
			c6.86-0.15,13.74-0.23,20.55-0.97c10.8-1.17,17.13-7.21,18.92-17.34c1.03-5.81,0.95-11.64-0.32-17.41
			c-1.59-7.21-5.81-12.29-12.94-14.34c-4.08-1.17-8.4-1.95-12.64-2.07c-10.73-0.3-21.47-0.13-32.21-0.14
			C1059.97,93.96,1059.3,94.05,1058.49,94.11z"/>
	</g>
	<g>
		<path class="st2" d="M1286.12,99.59c-10.92,0-21.37,0-31.83,0c-0.14-0.32-0.31-0.54-0.33-0.77c-0.34-5.68-4-8.3-9-9.44
			c-2.58-0.59-5.25-0.99-7.89-1.02c-9.79-0.12-19.59-0.2-29.38,0.04c-3.45,0.09-6.93,0.96-10.31,1.82c-2.49,0.63-4.19,2.32-4.2,5.18
			c-0.02,2.9,1.24,5.3,3.96,6c4.28,1.1,8.7,1.96,13.11,2.25c13.1,0.87,26.25,1.01,39.31,2.23c6.92,0.65,13.87,2.38,20.47,4.61
			c10.64,3.6,16.37,11.6,17.26,22.77c0.9,11.29-1.16,21.63-10.88,29c-5.32,4.04-11.52,6.09-17.94,7.44
			c-16.11,3.38-32.45,3.02-48.76,2.5c-9.54-0.3-18.99-1.32-28.13-4.37c-14.66-4.88-22.37-15.72-21.9-32.98c10.5,0,21.01,0,31.52,0
			c2.1,7.78,5.94,10.8,15.2,10.99c11.75,0.24,23.52,0.19,35.28-0.03c3-0.06,6.06-1.02,8.96-1.98c2.68-0.89,4.41-2.87,4.5-5.96
			c0.09-3.23-1.04-6-4.05-7.12c-3.4-1.27-7.03-2.38-10.62-2.61c-11.14-0.72-22.31-0.85-33.45-1.48c-9.49-0.53-18.94-1.6-28-4.75
			c-11.38-3.96-17.29-11.57-17.82-23.55c-0.18-4.08,0.03-8.3,0.91-12.27c2.21-9.9,9.15-15.61,18.28-18.97
			c8.55-3.14,17.48-4.33,26.51-4.73c15.98-0.71,31.96-1.08,47.8,1.66c4.12,0.71,8.22,1.88,12.12,3.38
			c11.25,4.35,17.2,12.91,18.65,24.73C1285.76,94.54,1285.89,96.93,1286.12,99.59z"/>
	</g>
	<g>
		<path class="st2" d="M612.83,169.61c-7.78,0-15.31,0-23.01,0c0-1.38,0-2.65,0-3.96c-0.4-0.05-0.67-0.17-0.85-0.09
			c-11.02,4.93-22.72,6.48-34.63,6.83c-13.24,0.39-26.43,0.2-39.38-3.17c-20.25-5.27-31.93-18.18-34.83-38.92
			c-1.54-10.99-1.38-21.94,1.4-32.74c4.5-17.48,16.33-27.42,33.28-32.02c14.12-3.84,28.51-3.94,42.95-3.17
			c8.26,0.44,16.36,1.86,24.2,4.57c16.06,5.54,25.79,16.7,29.42,33.23c0.16,0.74,0.2,1.51,0.3,2.38c-0.61,0.08-1.11,0.19-1.61,0.2
			c-10.74,0.01-21.47,0.03-32.21-0.04c-0.78,0-2.01-0.47-2.26-1.05c-3.37-7.75-9.76-11.27-17.62-12.57
			c-8.53-1.42-17.11-1.45-25.57,0.39c-9.82,2.14-15.69,8.25-17.47,18.27c-1.2,6.77-1.22,13.5,0.23,20.21
			c1.87,8.66,6.94,14.42,15.66,16.62c10.42,2.63,20.88,2.65,31.25-0.17c3.88-1.05,7.43-2.89,10.33-6.73c-8.02,0-15.51,0-23.2,0
			c0-7.82,0-15.33,0-23.05c21.12,0,42.27,0,63.6,0C612.83,132.91,612.83,151.15,612.83,169.61z"/>
	</g>
</g>
</svg>
